<?xml version="1.0" encoding="UTF-8" standalone="no"?>
<!-- Generator: Adobe Illustrator 19.0.0, SVG Export Plug-In . SVG Version: 6.00 Build 0)  -->

<svg
   xmlns:dc="http://purl.org/dc/elements/1.1/"
   xmlns:cc="http://creativecommons.org/ns#"
   xmlns:rdf="http://www.w3.org/1999/02/22-rdf-syntax-ns#"
   xmlns:svg="http://www.w3.org/2000/svg"
   xmlns="http://www.w3.org/2000/svg"
   xmlns:sodipodi="http://sodipodi.sourceforge.net/DTD/sodipodi-0.dtd"
   xmlns:inkscape="http://www.inkscape.org/namespaces/inkscape"
   version="1.1"
   id="Capa_1"
   x="0px"
   y="0px"
   viewBox="0 0 50 50"
   style="enable-background:new 0 0 50 50;"
   xml:space="preserve"
   inkscape:version="0.91 r13725"
   sodipodi:docname="mod.svg"><metadata
     id="metadata41"><rdf:RDF><cc:Work
         rdf:about=""><dc:format>image/svg+xml</dc:format><dc:type
           rdf:resource="http://purl.org/dc/dcmitype/StillImage" /></cc:Work></rdf:RDF></metadata><defs
     id="defs39" /><sodipodi:namedview
     pagecolor="#ffffff"
     bordercolor="#666666"
     borderopacity="1"
     objecttolerance="10"
     gridtolerance="10"
     guidetolerance="10"
     inkscape:pageopacity="0"
     inkscape:pageshadow="2"
     inkscape:window-width="1366"
     inkscape:window-height="715"
     id="namedview37"
     showgrid="false"
     inkscape:zoom="9.44"
     inkscape:cx="27.744229"
     inkscape:cy="21.642239"
     inkscape:window-x="0"
     inkscape:window-y="0"
     inkscape:window-maximized="1"
     inkscape:current-layer="Capa_1" /><circle
     style="fill:#ffcc00;fill-opacity:1"
     cx="25"
     cy="25"
     r="25"
     id="circle3" /><g
     id="g7" /><g
     id="g9" /><g
     id="g11" /><g
     id="g13" /><g
     id="g15" /><g
     id="g17" /><g
     id="g19" /><g
     id="g21" /><g
     id="g23" /><g
     id="g25" /><g
     id="g27" /><g
     id="g29" /><g
     id="g31" /><g
     id="g33" /><g
     id="g35" /><g
     id="g4167"
     transform="matrix(0.09155728,0,0,0.09421164,24.904401,22.161883)"><path
       id="path7"
       d="m 45.659061,190.6533 -185.379001,0 c -4.875,0 -8.828,-3.952 -8.828,-8.828 0,-4.876 3.952,-8.828 8.828,-8.828 l 185.379001,0 c 4.875,0 8.828,3.952 8.828,8.828 0,4.876 -3.952,8.828 -8.828,8.828 z"
       style="fill:#333333"
       inkscape:connector-curvature="0" /><path
       id="path9"
       d="m -41.203939,149.4283 c 0.883,-1.942 11.829,-25.423 -0.088,-37.341 -6.253,-5.211 -14.649,-7.055 -22.51,-4.943 -2.796,0.519 -5.669,-0.372 -7.68,-2.383 -2.011,-2.011 -2.903,-4.883997 -2.383,-7.679997 2.112,-7.861 0.268,-16.258 -4.943,-22.51 -11.917,-11.917 -35.399001,-0.971 -37.341001,-0.088 L 71.084061,-112.6617 145.94206,-37.803697 -41.203939,149.4283 Z"
       style="fill:#5aff36;fill-opacity:1"
       inkscape:connector-curvature="0" /><path
       id="path11"
       d="m -99.642939,168.9373 -37.341001,12.359 c -3.138,1.076 -6.614,0.271 -8.96,-2.074 -2.346,-2.346 -3.151,-5.822 -2.074,-8.96 l 12.359,-37.341 0.088,0 c 9.597,-0.177 18.852,3.564 25.631,10.36 6.779,6.795 10.497001,16.059 10.297001,25.656 l 0,0 z"
       style="fill:#3a3e48"
       inkscape:connector-curvature="0" /><path
       id="path13"
       d="m -41.203939,149.4283 -0.088,0.088 -58.35,19.421 c 0.2,-9.597 -3.518001,-18.861 -10.297001,-25.657 -6.779,-6.796 -16.034,-10.536 -25.631,-10.36 l 19.332,-58.349997 0.088,-0.088 c 1.942,-0.883 25.423001,-11.829 37.341001,0.088 5.211,6.253 7.055,14.649 4.943,22.51 -0.519,2.796 0.372,5.668997 2.383,7.679997 2.011,2.011 4.884,2.903 7.68,2.383 7.861,-2.111 16.257,-0.267 22.51,4.943 11.918,11.918 0.972,35.4 0.089,37.342 z"
       style="fill:#fccc88"
       inkscape:connector-curvature="0" /><path
       id="path15"
       d="m 145.95106,-37.727697 -74.904999,-74.905003 24.968,-24.968 c 6.894999,-6.895 18.072999,-6.895 24.967999,0 l 49.937,49.937003 c 6.895,6.895 6.895,18.073 0,24.968 l -24.968,24.968 z"
       style="fill:#dc6c33"
       inkscape:connector-curvature="0" /><rect
       id="rect17"
       height="52.965492"
       width="105.93098"
       style="fill:#ffffff"
       transform="matrix(0.70710678,0.70710678,-0.70710678,0.70710678,0,0)"
       y="-129.88455"
       x="-29.404011" /><path
       id="path19"
       d="m -35.072939,77.178303 c -3.57,-0.001 -6.788,-2.152 -8.154,-5.45 -1.366,-3.298 -0.611,-7.094 1.913,-9.619 l 87.388,-87.388 c 3.447,-3.447 9.036,-3.447 12.483,0 3.447,3.447 3.447,9.036 0,12.483 l -87.388,87.388 c -1.654,1.659 -3.901,2.589 -6.242,2.586 z"
       style="fill:#6aca4c;fill-opacity:1"
       inkscape:connector-curvature="0" /></g></svg>